<?xml version="1.0" encoding="utf-8"?>
<!-- Generator: Adobe Illustrator 23.0.1, SVG Export Plug-In . SVG Version: 6.00 Build 0)  -->
<svg version="1.1" id="图层_1" xmlns="http://www.w3.org/2000/svg" xmlns:xlink="http://www.w3.org/1999/xlink" x="0px" y="0px"
	 viewBox="0 0 1330 243" style="enable-background:new 0 0 1330 243;" xml:space="preserve">
<style type="text/css">
	.st0{fill:#C5002B;}
</style>
<g>
	<g>
		<path class="st0" d="M451.12,55.72h-17.71c-7.79,0-14.1,6.31-14.1,14.1v1.04c0,7.79,6.31,14.1,14.1,14.1h17.71
			c7.79,0,14.1-6.31,14.1-14.1v-1.04C465.22,62.03,458.91,55.72,451.12,55.72z"/>
		<path class="st0" d="M473.78,2.75H317.89c-22.53,0-40.79,18.26-40.79,40.79v155.89c0,22.53,18.26,40.79,40.79,40.79h155.89
			c22.53,0,40.79-18.26,40.79-40.79V43.55C514.57,21.02,496.31,2.75,473.78,2.75z M477.13,69.9c0,14.41-11.68,26.09-26.09,26.09
			h-30.62V202.7c0,4.91-3.98,8.9-8.9,8.9h-31.39c-4.91,0-8.9-3.98-8.9-8.9V95.99h-30.62c-14.41,0-26.09-11.68-26.09-26.09v0
			c0-14.41,11.68-26.09,26.09-26.09h110.42C465.45,43.81,477.13,55.49,477.13,69.9L477.13,69.9z"/>
	</g>
	<g>
		<g>
			<path class="st0" d="M604.52,176.71h-16.7v44.56h-11.08v-44.56h-16.7v-9.31h44.47V176.71z"/>
			<path class="st0" d="M640.99,199.79h0.31l18.78-32.39h10.85v53.86H660.3v-35.39h-0.23l-15.77,28.07h-6.46l-15.77-28.07h-0.23
				v35.39h-10.62V167.4h11.08L640.99,199.79z"/>
			<path class="st0" d="M722.09,176.71h-16.7v44.56h-11.08v-44.56h-16.7v-9.31h44.47V176.71z"/>
			<path class="st0" d="M729.79,167.4h22.01c6.46,0,11.59,1.44,15.39,4.32c3.85,2.93,5.77,7.28,5.77,13.04s-1.9,10.11-5.69,13.04
				c-3.85,2.98-8.82,4.47-14.93,4.47h-11.39v18.98h-11.16V167.4z M751.56,193.27c2.97,0,5.36-0.71,7.16-2.13
				c1.74-1.42,2.62-3.52,2.62-6.3s-0.9-4.91-2.69-6.38c-1.69-1.42-4.05-2.13-7.08-2.13h-10.62v16.93H751.56z"/>
			<path class="st0" d="M806.73,222.29c-5.28,0-10.11-1.22-14.47-3.66c-4.26-2.49-7.62-5.84-10.08-10.04
				c-2.41-4.15-3.62-8.89-3.62-14.22c0-5.32,1.2-10.06,3.62-14.22c2.51-4.3,5.87-7.67,10.08-10.11c4.21-2.44,9.03-3.66,14.47-3.66
				c5.44,0,10.26,1.22,14.47,3.66c4.21,2.35,7.57,5.69,10.08,10.04c2.46,4.25,3.69,9.01,3.69,14.29c0,5.23-1.23,9.97-3.69,14.22
				c-2.46,4.2-5.82,7.55-10.08,10.04C816.83,221.07,812.01,222.29,806.73,222.29z M790.19,194.37c0,3.52,0.69,6.67,2.08,9.45
				c1.38,2.74,3.31,4.89,5.77,6.45c2.51,1.56,5.41,2.35,8.69,2.35s6.21-0.78,8.77-2.35c2.51-1.61,4.44-3.79,5.77-6.52
				c1.39-2.78,2.08-5.98,2.08-9.6c0-3.52-0.69-6.64-2.08-9.38c-1.38-2.74-3.33-4.86-5.85-6.38c-2.51-1.51-5.41-2.27-8.7-2.27
				c-3.38,0-6.28,0.76-8.69,2.27c-2.46,1.56-4.39,3.71-5.77,6.45C790.88,187.63,790.19,190.8,790.19,194.37z"/>
			<path class="st0" d="M873.98,180.96c-3.08-3.57-7.13-5.35-12.16-5.35c-2.46,0-4.44,0.49-5.92,1.46c-1.59,1.03-2.38,2.49-2.38,4.4
				c0,1.81,0.8,3.22,2.38,4.25c1.44,0.93,4.05,1.93,7.85,3.01c6.26,1.61,10.95,3.76,14.08,6.45c3.18,2.64,4.77,6.35,4.77,11.14
				c0,5.08-1.95,9.04-5.85,11.87c-3.95,2.74-9,4.1-15.16,4.1c-4,0-8-0.81-12-2.42c-4.1-1.66-7.21-3.81-9.31-6.45l6.69-6.67
				c4.16,4.25,9.13,6.38,14.93,6.38c2.72,0,4.98-0.56,6.77-1.69c1.74-1.12,2.62-2.69,2.62-4.69c0-1.71-0.46-3.08-1.39-4.1
				c-0.97-1.08-2.2-1.93-3.69-2.56c-1.38-0.64-3.62-1.34-6.69-2.13c-5.8-1.46-10.13-3.44-13-5.93c-2.82-2.49-4.23-5.84-4.23-10.04
				c0-3.32,0.87-6.13,2.62-8.43c1.74-2.39,4.1-4.18,7.08-5.35c2.92-1.22,6.31-1.83,10.16-1.83c3.8,0,7.34,0.71,10.62,2.13
				c3.33,1.37,6.13,3.32,8.39,5.86L873.98,180.96z"/>
			<path class="st0" d="M931.38,176.71h-16.7v44.56H903.6v-44.56h-16.7v-9.31h44.47V176.71z"/>
		</g>
		<g>
			<path class="st0" d="M922.95,95.25c-1.61-12-2.15-29.07-2.33-41.38h8.64V39.53h-32.78v-7.95h-14.34v7.95h-32.78v14.34h8.64
				c-0.18,12.32-0.72,29.39-2.33,41.38c-3.34,24.93-10.7,50.19-10.7,50.2c0,0,13.91,3.57,13.91,3.57c0,0,3.58-12.74,5.64-21.96
				h17.63v21.86c0,0,0,0,0,0h14.34v-21.86h17.62c2.06,9.2,5.63,21.93,5.64,21.96l13.91-3.57
				C933.65,145.45,926.29,120.19,922.95,95.25z M882.13,112.71h-14.72c0.89-4.93,1.73-10.14,2.46-15.55
				c1.66-12.41,2.27-29.31,2.46-43.29h9.8V112.71z M896.47,112.71V53.87h9.8c0.19,13.97,0.8,30.88,2.46,43.29
				c0.73,5.42,1.57,10.63,2.46,15.55H896.47z"/>
			<path class="st0" d="M835.12,31.58c0,0-4.34,15.52-10.24,26.38c-7.38,13.59-17.26,23.69-17.26,23.69c0,0,7.77,7.81,10.16,10.21
				c0,0,0.35-0.36,0.78-0.82c1.69-1.8,5.87-6.43,10.2-12.4v1.6c-1.03,2.43-2.08,4.75-3.14,6.95v61.71h14.34V60.03
				c6.44-13.23,9.85-28.45,9.85-28.45L835.12,31.58z"/>
			<path class="st0" d="M793.58,109.25h7.9V94.91h-28.94v-4.06h22.35V53.87h6.69V39.53h-6.69v-7.95H780.9v7.95h-30.99v-7.95h-13.98
				v7.95h-6.69v14.34h6.69v36.98h22.35v4.06h-28.94v14.34h7.9c-0.22,6.94-1.3,15.84-2.84,21.58c-1.69,6.33-5.17,13.72-5.19,13.76
				l14.25,4.43c0,0,3.56-9.87,4.79-14.48c1.86-6.94,2.93-16.9,3.36-25.29h6.67v39.66h14.24v-39.66h6.67
				c0.43,8.39,1.5,18.34,3.36,25.29c1.23,4.59,4.78,14.44,4.79,14.48l14.25-4.43c-0.02-0.04-3.49-7.43-5.19-13.76
				C794.88,125.09,793.79,116.19,793.58,109.25z M749.91,53.87h30.99v4.87h-30.99V53.87z M749.91,76.87V72h30.99v4.87H749.91z"/>
			<path class="st0" d="M647.75,62.49l-8.1-1.6l0.12-1.11h21.15c5.56,0,10.06-4.5,10.06-10.06s-4.5-10.06-10.06-10.06H641.8
				c0.2-2.67,0.39-5.36,0.55-8.07h-14.39c-0.17,2.72-0.36,5.41-0.57,8.07h-15.81c-5.56,0-10.06,4.5-10.06,10.06
				s4.5,10.06,10.06,10.06h13.73c-0.18,1.41-0.36,2.81-0.56,4.19c-2.63,18.75-9.01,47.99-23.6,79.01l13.46,6.06
				c2.85-6.31,6.82-15.76,10.64-26.78c0,0,1.87,6.05,4.59,11.97c2.99,6.53,7.1,12.14,7.1,12.15l13.18-6.72c0,0-3.2-5.21-5.83-10.62
				c-1.88-3.88-3.46-8.26-3.46-8.26h-15.08c4.15-12.16,8.27-26.62,11.22-42.43c1.28,4.7,2.75,9.74,4.43,15.05
				c8.21,25.92,17.1,46.13,21.54,55.64l13.41-6.19c0,0,0,0,0,0c-1.65-3.23-10.65-21.42-21.48-55.1
				C652.17,79.28,649.74,70.66,647.75,62.49z M660.93,43.48c3.44,0,6.23,2.79,6.23,6.23c0,3.44-2.79,6.23-6.23,6.23
				c-3.44,0-6.23-2.79-6.23-6.23C654.69,46.27,657.48,43.48,660.93,43.48z"/>
			<path class="st0" d="M571.41,63.13c0.77-1.52,2.68-5.55,3.79-9.27h24.21V39.53h-21.57c0.35-4.11,0.35-7.92,0.35-7.95h-14.53
				c0,0.01-0.21,6.9-1.82,15.02c-1,5.04-4.06,11.39-4.06,11.4L571.41,63.13z"/>
			<path class="st0" d="M599.41,106.88V92.54h-15.34V79.75h15.34V65.41h-38.9v14.34h9.22v12.79h-11.14v14.34h11.14v31.71
				c0,2.23,0.83,4.43,2.47,5.93c1.45,1.32,3.27,2.01,5.14,2.01c0.66,0,1.33-0.09,1.99-0.26l20.07-5.36v-14.84l-12.83,3.43
				c-0.6,0.16-1.23,0.03-1.73-0.34c-0.5-0.38-0.78-0.96-0.78-1.58v-20.69H599.41"/>
			<path class="st0" d="M729.61,122.49l-12.26-9.76c1.19-2.91,2.27-5.92,3.21-9.03c6.3-20.95,6.37-55.54,6.37-57.01v-7.17h-19.07
				l1.09-7.95h-14.49l-1.08,7.95h-9.63v14.34h7.66l-5.4,39.41c-0.98,7.17,1.88,14.33,7.55,18.84l5.89,4.69
				c-7.27,12.86-17.09,24.31-17.09,24.31l12.44,7.94c0,0,11.06-14.22,16.11-23.12l12.11,9.64L729.61,122.49z M706.83,99.56
				c-0.42,1.28-0.85,2.53-1.3,3.75l-3.06-2.44c-1.69-1.34-2.54-3.48-2.25-5.61l5.68-41.39l6.56,0
				C712.03,67.5,710.97,86.85,706.83,99.56z"/>
		</g>
	</g>
</g>
</svg>
