<svg style="width:100%;height:auto;display:block;font-family:-apple-system,BlinkMacSystemFont,'PingFang SC','Microsoft YaHei',sans-serif;" viewbox="0 0 700 270"><text fill="#16213e" font-size="14" font-weight="bold" text-anchor="middle" x="350" y="22"><tspan leaf="">三层数据保护</tspan></text><rect fill="#fff" height="110" rx="6" stroke="#dee2e6" width="180" x="30" y="60"></rect><rect fill="#27ae60" height="6" rx="3" width="180" x="30" y="60"></rect><text fill="#16213e" font-size="13" font-weight="bold" text-anchor="middle" x="120" y="92"><tspan leaf="">副本</tspan></text><text fill="#333" font-size="11" text-anchor="middle" x="120" y="114"><tspan leaf="">同步复制到其他节点</tspan></text><text fill="#555" font-size="11" text-anchor="middle" x="120" y="132"><tspan leaf="">防单盘单机故障</tspan></text><text fill="#888" font-size="11" text-anchor="middle" x="120" y="150"><tspan leaf="">实时</tspan></text><rect fill="#fff" height="110" rx="6" stroke="#dee2e6" width="180" x="260" y="60"></rect><rect fill="#667eea" height="6" rx="3" width="180" x="260" y="60"></rect><text fill="#16213e" font-size="13" font-weight="bold" text-anchor="middle" x="350" y="92"><tspan leaf="">快照</tspan></text><text fill="#333" font-size="11" text-anchor="middle" x="350" y="114"><tspan leaf="">增量，留在集群内</tspan></text><text fill="#555" font-size="11" text-anchor="middle" x="350" y="132"><tspan leaf="">防误操作，可回滚</tspan></text><text fill="#888" font-size="11" text-anchor="middle" x="350" y="150"><tspan leaf="">分钟级定时</tspan></text><rect fill="#fff" height="110" rx="6" stroke="#dee2e6" width="180" x="490" y="60"></rect><rect fill="#764ba2" height="6" rx="3" width="180" x="490" y="60"></rect><text fill="#16213e" font-size="13" font-weight="bold" text-anchor="middle" x="580" y="92"><tspan leaf="">备份</tspan></text><text fill="#333" font-size="11" text-anchor="middle" x="580" y="114"><tspan leaf="">推到集群外</tspan></text><text fill="#555" font-size="11" text-anchor="middle" x="580" y="132"><tspan leaf="">S3 兼容存储 / NFS</tspan></text><text fill="#888" font-size="11" text-anchor="middle" x="580" y="150"><tspan leaf="">防集群级灾难</tspan></text><line stroke="#999" stroke-width="1.5" x1="210" x2="256" y1="115" y2="115"></line><polygon fill="#999" points="256,111 264,115 256,119"></polygon><line stroke="#999" stroke-width="1.5" x1="440" x2="486" y1="115" y2="115"></line><polygon fill="#999" points="486,111 494,115 486,119"></polygon><text fill="#333" font-size="12" text-anchor="middle" x="350" y="205"><tspan leaf="">Recurring Job 定时执行：快照、备份、清理旧快照</tspan></text><text fill="#888" font-size="11" text-anchor="middle" x="350" y="228"><tspan leaf="">每个卷可以有自己的保护策略，按卷配置</tspan></text></svg>