<svg style="width:100%;height:auto;display:block;font-family:-apple-system,BlinkMacSystemFont,'PingFang SC','Microsoft YaHei',sans-serif;" viewbox="0 0 700 260"><text fill="#16213e" font-size="14" font-weight="bold" text-anchor="middle" x="350" y="22"><tspan leaf="">一次同步写入的路径</tspan></text><rect fill="#0f3460" height="44" rx="4" width="110" x="40" y="90"></rect><text fill="#fff" font-size="12" font-weight="bold" text-anchor="middle" x="95" y="117"><tspan leaf="">应用写入</tspan></text><rect fill="#e94560" height="44" rx="4" width="110" x="210" y="90"></rect><text fill="#fff" font-size="12" font-weight="bold" text-anchor="middle" x="265" y="117"><tspan leaf="">引擎</tspan></text><rect fill="#27ae60" height="36" rx="4" width="110" x="380" y="50"></rect><text fill="#fff" font-size="11" font-weight="bold" text-anchor="middle" x="435" y="73"><tspan leaf="">副本 1</tspan></text><rect fill="#27ae60" height="36" rx="4" width="110" x="380" y="94"></rect><text fill="#fff" font-size="11" font-weight="bold" text-anchor="middle" x="435" y="117"><tspan leaf="">副本 2</tspan></text><rect fill="#27ae60" height="36" rx="4" width="110" x="380" y="138"></rect><text fill="#fff" font-size="11" font-weight="bold" text-anchor="middle" x="435" y="161"><tspan leaf="">副本 3</tspan></text><rect fill="#f8f9fa" height="44" rx="4" stroke="#dee2e6" width="110" x="560" y="90"></rect><text fill="#16213e" font-size="11" font-weight="bold" text-anchor="middle" x="615" y="110"><tspan leaf="">各节点磁盘</tspan></text><text fill="#555" font-size="10" text-anchor="middle" x="615" y="126"><tspan leaf="">数据落盘</tspan></text><line stroke="#999" stroke-width="1.5" x1="150" x2="206" y1="112" y2="112"></line><polygon fill="#999" points="206,108 214,112 206,116"></polygon><line stroke="#999" stroke-width="1.5" x1="320" x2="376" y1="100" y2="68"></line><polygon fill="#999" points="376,64 384,68 376,72"></polygon><line stroke="#999" stroke-width="1.5" x1="320" x2="376" y1="112" y2="112"></line><polygon fill="#999" points="376,108 384,112 376,116"></polygon><line stroke="#999" stroke-width="1.5" x1="320" x2="376" y1="124" y2="156"></line><polygon fill="#999" points="376,152 384,156 376,160"></polygon><line stroke="#999" stroke-width="1.5" x1="490" x2="556" y1="68" y2="100"></line><line stroke="#999" stroke-width="1.5" x1="490" x2="556" y1="112" y2="112"></line><line stroke="#999" stroke-width="1.5" x1="490" x2="556" y1="156" y2="124"></line><text fill="#333" font-size="12" text-anchor="middle" x="350" y="210"><tspan leaf="">副本全部确认落盘，引擎才向前端返回成功</tspan></text><text fill="#888" font-size="11" text-anchor="middle" x="350" y="232"><tspan leaf="">任何一刻挂掉一个副本，已确认数据不丢</tspan></text></svg>